<mxfile host="app.diagrams.net" agent="Mozilla/5.0 (X11; Ubuntu; Linux x86_64; rv:127.0) Gecko/20100101 Firefox/127.0" version="24.7.4">
  <diagram id="C5RBs43oDa-KdzZeNtuy" name="Page-1">
    <mxGraphModel dx="1434" dy="795" grid="1" gridSize="10" guides="1" tooltips="1" connect="1" arrows="1" fold="1" page="1" pageScale="1" pageWidth="827" pageHeight="1169" math="0" shadow="0">
      <root>
        <mxCell id="WIyWlLk6GJQsqaUBKTNV-0" />
        <mxCell id="WIyWlLk6GJQsqaUBKTNV-1" parent="WIyWlLk6GJQsqaUBKTNV-0" />
        <mxCell id="WIyWlLk6GJQsqaUBKTNV-3" value="Portal inactive" style="rounded=1;whiteSpace=wrap;html=1;fontSize=12;glass=0;strokeWidth=1;shadow=0;" parent="WIyWlLk6GJQsqaUBKTNV-1" vertex="1">
          <mxGeometry x="201" y="80" width="120" height="40" as="geometry" />
        </mxCell>
        <mxCell id="WIyWlLk6GJQsqaUBKTNV-7" value="Portal active" style="rounded=1;whiteSpace=wrap;html=1;glass=0;strokeWidth=1;shadow=0;" parent="WIyWlLk6GJQsqaUBKTNV-1" vertex="1">
          <mxGeometry x="481" y="80" width="120" height="40" as="geometry" />
        </mxCell>
        <mxCell id="qdEOSnmfSPoA841GeRWL-1" value="Blob sits on Button" style="endArrow=classic;html=1;rounded=0;exitX=0.5;exitY=0;exitDx=0;exitDy=0;" parent="WIyWlLk6GJQsqaUBKTNV-1" source="WIyWlLk6GJQsqaUBKTNV-3" edge="1">
          <mxGeometry width="50" height="50" relative="1" as="geometry">
            <mxPoint x="261" y="80" as="sourcePoint" />
            <mxPoint x="541" y="80" as="targetPoint" />
            <Array as="points">
              <mxPoint x="260" y="60" />
              <mxPoint x="541" y="60" />
            </Array>
          </mxGeometry>
        </mxCell>
        <mxCell id="qdEOSnmfSPoA841GeRWL-3" value="&lt;div&gt;Object is located on portal input&lt;/div&gt;" style="rounded=1;whiteSpace=wrap;html=1;" parent="WIyWlLk6GJQsqaUBKTNV-1" vertex="1">
          <mxGeometry x="481" y="200" width="120" height="40" as="geometry" />
        </mxCell>
        <mxCell id="qdEOSnmfSPoA841GeRWL-6" value="&lt;div&gt;Blobb activates&amp;nbsp;&lt;/div&gt;&lt;div&gt;portal with key input&lt;/div&gt;" style="endArrow=classic;html=1;rounded=0;entryX=1;entryY=0.5;entryDx=0;entryDy=0;exitX=0;exitY=0.5;exitDx=0;exitDy=0;" parent="WIyWlLk6GJQsqaUBKTNV-1" source="qdEOSnmfSPoA841GeRWL-3" target="qdEOSnmfSPoA841GeRWL-7" edge="1">
          <mxGeometry x="0.0667" width="50" height="50" relative="1" as="geometry">
            <mxPoint x="561" y="180" as="sourcePoint" />
            <mxPoint x="611" y="130" as="targetPoint" />
            <mxPoint as="offset" />
          </mxGeometry>
        </mxCell>
        <mxCell id="qdEOSnmfSPoA841GeRWL-7" value="Object position is updated to portal output" style="rounded=1;whiteSpace=wrap;html=1;" parent="WIyWlLk6GJQsqaUBKTNV-1" vertex="1">
          <mxGeometry x="201" y="200" width="140" height="40" as="geometry" />
        </mxCell>
        <mxCell id="qdEOSnmfSPoA841GeRWL-9" value="Blobb moves Object" style="endArrow=classic;html=1;rounded=0;" parent="WIyWlLk6GJQsqaUBKTNV-1" source="WIyWlLk6GJQsqaUBKTNV-7" target="qdEOSnmfSPoA841GeRWL-3" edge="1">
          <mxGeometry x="0.0002" y="1" width="50" height="50" relative="1" as="geometry">
            <mxPoint x="381" y="320" as="sourcePoint" />
            <mxPoint x="571" y="240" as="targetPoint" />
            <mxPoint as="offset" />
          </mxGeometry>
        </mxCell>
        <mxCell id="qdEOSnmfSPoA841GeRWL-10" value="Blob leaves Button" style="endArrow=classic;html=1;rounded=0;entryX=1;entryY=0.5;entryDx=0;entryDy=0;" parent="WIyWlLk6GJQsqaUBKTNV-1" source="WIyWlLk6GJQsqaUBKTNV-7" target="WIyWlLk6GJQsqaUBKTNV-3" edge="1">
          <mxGeometry width="50" height="50" relative="1" as="geometry">
            <mxPoint x="381" y="320" as="sourcePoint" />
            <mxPoint x="431" y="270" as="targetPoint" />
          </mxGeometry>
        </mxCell>
        <mxCell id="qdEOSnmfSPoA841GeRWL-21" value="&lt;div&gt;Switch left&lt;br&gt;&lt;/div&gt;&lt;div&gt;/&lt;/div&gt;&lt;div&gt;Portal inactive&lt;/div&gt;" style="rounded=1;whiteSpace=wrap;html=1;fontSize=12;glass=0;strokeWidth=1;shadow=0;" parent="WIyWlLk6GJQsqaUBKTNV-1" vertex="1">
          <mxGeometry x="201" y="281" width="120" height="50" as="geometry" />
        </mxCell>
        <mxCell id="qdEOSnmfSPoA841GeRWL-22" value="&lt;div&gt;Switch right&lt;br&gt;&lt;/div&gt;&lt;div&gt;/&lt;/div&gt;&lt;div&gt;Portal active&lt;/div&gt;" style="rounded=1;whiteSpace=wrap;html=1;glass=0;strokeWidth=1;shadow=0;" parent="WIyWlLk6GJQsqaUBKTNV-1" vertex="1">
          <mxGeometry x="481" y="281" width="120" height="50" as="geometry" />
        </mxCell>
        <mxCell id="qdEOSnmfSPoA841GeRWL-24" value="&lt;div&gt;Object is located on portal input&lt;/div&gt;" style="rounded=1;whiteSpace=wrap;html=1;" parent="WIyWlLk6GJQsqaUBKTNV-1" vertex="1">
          <mxGeometry x="481" y="401" width="120" height="40" as="geometry" />
        </mxCell>
        <mxCell id="qdEOSnmfSPoA841GeRWL-25" value="&lt;div&gt;Blobb executes portal&lt;br&gt;&lt;/div&gt;" style="endArrow=classic;html=1;rounded=0;entryX=1;entryY=0.5;entryDx=0;entryDy=0;exitX=0;exitY=0.5;exitDx=0;exitDy=0;" parent="WIyWlLk6GJQsqaUBKTNV-1" source="qdEOSnmfSPoA841GeRWL-24" target="qdEOSnmfSPoA841GeRWL-26" edge="1">
          <mxGeometry x="0.0667" width="50" height="50" relative="1" as="geometry">
            <mxPoint x="561" y="381" as="sourcePoint" />
            <mxPoint x="611" y="331" as="targetPoint" />
            <mxPoint as="offset" />
          </mxGeometry>
        </mxCell>
        <mxCell id="qdEOSnmfSPoA841GeRWL-26" value="Object position is updated to portal output" style="rounded=1;whiteSpace=wrap;html=1;" parent="WIyWlLk6GJQsqaUBKTNV-1" vertex="1">
          <mxGeometry x="201" y="401" width="130" height="40" as="geometry" />
        </mxCell>
        <mxCell id="qdEOSnmfSPoA841GeRWL-27" value="Blobb moves Object" style="endArrow=classic;html=1;rounded=0;" parent="WIyWlLk6GJQsqaUBKTNV-1" source="qdEOSnmfSPoA841GeRWL-22" target="qdEOSnmfSPoA841GeRWL-24" edge="1">
          <mxGeometry x="0.0002" y="1" width="50" height="50" relative="1" as="geometry">
            <mxPoint x="381" y="521" as="sourcePoint" />
            <mxPoint x="571" y="441" as="targetPoint" />
            <mxPoint as="offset" />
          </mxGeometry>
        </mxCell>
        <mxCell id="qdEOSnmfSPoA841GeRWL-29" value="Button" style="text;html=1;align=center;verticalAlign=middle;whiteSpace=wrap;rounded=0;fontStyle=1;fontSize=16;" parent="WIyWlLk6GJQsqaUBKTNV-1" vertex="1">
          <mxGeometry x="119" y="146" width="60" height="30" as="geometry" />
        </mxCell>
        <mxCell id="qdEOSnmfSPoA841GeRWL-31" value="&lt;div&gt;Blob/Blobb executes &lt;br&gt;&lt;/div&gt;&lt;div&gt;switch&lt;/div&gt;" style="endArrow=classic;startArrow=classic;html=1;rounded=0;" parent="WIyWlLk6GJQsqaUBKTNV-1" source="qdEOSnmfSPoA841GeRWL-21" target="qdEOSnmfSPoA841GeRWL-22" edge="1">
          <mxGeometry width="50" height="50" relative="1" as="geometry">
            <mxPoint x="381" y="281" as="sourcePoint" />
            <mxPoint x="431" y="231" as="targetPoint" />
          </mxGeometry>
        </mxCell>
        <mxCell id="qdEOSnmfSPoA841GeRWL-32" value="Switch - Object" style="text;html=1;align=center;verticalAlign=middle;whiteSpace=wrap;rounded=0;fontStyle=1;fontSize=16;" parent="WIyWlLk6GJQsqaUBKTNV-1" vertex="1">
          <mxGeometry x="119" y="341" width="60" height="30" as="geometry" />
        </mxCell>
        <mxCell id="qdEOSnmfSPoA841GeRWL-33" value="&lt;div&gt;Switch off&lt;/div&gt;&lt;div&gt;/&lt;/div&gt;&lt;div&gt;Portal inactive&lt;/div&gt;" style="rounded=1;whiteSpace=wrap;html=1;fontSize=12;glass=0;strokeWidth=1;shadow=0;" parent="WIyWlLk6GJQsqaUBKTNV-1" vertex="1">
          <mxGeometry x="201" y="481" width="120" height="50" as="geometry" />
        </mxCell>
        <mxCell id="qdEOSnmfSPoA841GeRWL-34" value="&lt;div&gt;Switch on&lt;/div&gt;&lt;div&gt;/&lt;/div&gt;&lt;div&gt;Portal active&lt;/div&gt;" style="rounded=1;whiteSpace=wrap;html=1;glass=0;strokeWidth=1;shadow=0;" parent="WIyWlLk6GJQsqaUBKTNV-1" vertex="1">
          <mxGeometry x="481" y="481" width="120" height="50" as="geometry" />
        </mxCell>
        <mxCell id="qdEOSnmfSPoA841GeRWL-35" value="&lt;div&gt;Blob and Blobb are located on portal input&lt;/div&gt;" style="rounded=1;whiteSpace=wrap;html=1;" parent="WIyWlLk6GJQsqaUBKTNV-1" vertex="1">
          <mxGeometry x="481" y="601" width="120" height="51" as="geometry" />
        </mxCell>
        <mxCell id="qdEOSnmfSPoA841GeRWL-36" value="&lt;div&gt;Blob/Blobb executes portal&lt;br&gt;&lt;/div&gt;" style="endArrow=classic;html=1;rounded=0;entryX=1;entryY=0.5;entryDx=0;entryDy=0;exitX=0;exitY=0.5;exitDx=0;exitDy=0;" parent="WIyWlLk6GJQsqaUBKTNV-1" source="qdEOSnmfSPoA841GeRWL-35" target="qdEOSnmfSPoA841GeRWL-37" edge="1">
          <mxGeometry x="-0.0533" width="50" height="50" relative="1" as="geometry">
            <mxPoint x="561" y="581" as="sourcePoint" />
            <mxPoint x="611" y="531" as="targetPoint" />
            <mxPoint as="offset" />
          </mxGeometry>
        </mxCell>
        <mxCell id="qdEOSnmfSPoA841GeRWL-37" value="&lt;div&gt;Blob position is updated&lt;/div&gt;&lt;div&gt;to portal input Blobb&lt;br&gt;&lt;/div&gt;&amp;nbsp;and Blobb position is updated to portal output" style="rounded=1;whiteSpace=wrap;html=1;" parent="WIyWlLk6GJQsqaUBKTNV-1" vertex="1">
          <mxGeometry x="201" y="581.5" width="130" height="90" as="geometry" />
        </mxCell>
        <mxCell id="qdEOSnmfSPoA841GeRWL-38" value="&lt;div&gt;Blob and Blobb move &lt;br&gt;&lt;/div&gt;&lt;div&gt;to portal location&lt;br&gt;&lt;/div&gt;" style="endArrow=classic;html=1;rounded=0;" parent="WIyWlLk6GJQsqaUBKTNV-1" source="qdEOSnmfSPoA841GeRWL-34" target="qdEOSnmfSPoA841GeRWL-35" edge="1">
          <mxGeometry x="0.0002" y="1" width="50" height="50" relative="1" as="geometry">
            <mxPoint x="381" y="721" as="sourcePoint" />
            <mxPoint x="571" y="641" as="targetPoint" />
            <mxPoint as="offset" />
          </mxGeometry>
        </mxCell>
        <mxCell id="qdEOSnmfSPoA841GeRWL-39" value="&lt;div&gt;Blob/Blobb executes&amp;nbsp;&lt;/div&gt;&lt;div&gt;switch&lt;br&gt;&lt;/div&gt;" style="endArrow=classic;startArrow=classic;html=1;rounded=0;" parent="WIyWlLk6GJQsqaUBKTNV-1" source="qdEOSnmfSPoA841GeRWL-33" target="qdEOSnmfSPoA841GeRWL-34" edge="1">
          <mxGeometry width="50" height="50" relative="1" as="geometry">
            <mxPoint x="381" y="481" as="sourcePoint" />
            <mxPoint x="431" y="431" as="targetPoint" />
          </mxGeometry>
        </mxCell>
        <mxCell id="qdEOSnmfSPoA841GeRWL-40" value="Switch - Blob(b)" style="text;html=1;align=center;verticalAlign=middle;whiteSpace=wrap;rounded=0;fontStyle=1;fontSize=16;" parent="WIyWlLk6GJQsqaUBKTNV-1" vertex="1">
          <mxGeometry x="119" y="543" width="60" height="30" as="geometry" />
        </mxCell>
        <mxCell id="YDu2nabQ58fO0AvrFinH-0" value="" style="endArrow=none;dashed=1;html=1;dashPattern=1 3;strokeWidth=2;rounded=0;" edge="1" parent="WIyWlLk6GJQsqaUBKTNV-1">
          <mxGeometry width="50" height="50" relative="1" as="geometry">
            <mxPoint x="41" y="460" as="sourcePoint" />
            <mxPoint x="681" y="460" as="targetPoint" />
          </mxGeometry>
        </mxCell>
        <mxCell id="YDu2nabQ58fO0AvrFinH-1" value="" style="endArrow=none;dashed=1;html=1;dashPattern=1 3;strokeWidth=2;rounded=0;" edge="1" parent="WIyWlLk6GJQsqaUBKTNV-1">
          <mxGeometry width="50" height="50" relative="1" as="geometry">
            <mxPoint x="43" y="261" as="sourcePoint" />
            <mxPoint x="683" y="261" as="targetPoint" />
          </mxGeometry>
        </mxCell>
      </root>
    </mxGraphModel>
  </diagram>
</mxfile>
